<?xml version="1.0" encoding="UTF-8" standalone="no"?>
<svg
   xmlns:dc="http://purl.org/dc/elements/1.1/"
   xmlns:cc="http://creativecommons.org/ns#"
   xmlns:rdf="http://www.w3.org/1999/02/22-rdf-syntax-ns#"
   xmlns:svg="http://www.w3.org/2000/svg"
   xmlns="http://www.w3.org/2000/svg"
   xmlns:sodipodi="http://sodipodi.sourceforge.net/DTD/sodipodi-0.dtd"
   xmlns:inkscape="http://www.inkscape.org/namespaces/inkscape"
   version="1.1"
   id="Calque_1"
   x="0px"
   y="0px"
   viewBox="0 0 337.17999 204.52"
   xml:space="preserve"
   sodipodi:docname="GCC_logo_notext.svg"
   inkscape:version="1.0.2 (e86c870879, 2021-01-15, custom)"
   width="337.17999"
   height="204.52"><metadata
   id="metadata19"><rdf:RDF><cc:Work
       rdf:about=""><dc:format>image/svg+xml</dc:format><dc:type
         rdf:resource="http://purl.org/dc/dcmitype/StillImage" /><dc:title /></cc:Work></rdf:RDF></metadata><defs
   id="defs17" /><sodipodi:namedview
   pagecolor="#dfdfdf"
   bordercolor="#666666"
   borderopacity="1"
   objecttolerance="10"
   gridtolerance="10"
   guidetolerance="10"
   inkscape:pageopacity="0"
   inkscape:pageshadow="2"
   inkscape:window-width="1914"
   inkscape:window-height="1020"
   id="namedview15"
   showgrid="false"
   inkscape:zoom="0.8727555"
   inkscape:cx="251.80331"
   inkscape:cy="46.34205"
   inkscape:window-x="3"
   inkscape:window-y="30"
   inkscape:window-maximized="1"
   inkscape:current-layer="Calque_1"
   inkscape:document-rotation="0"
   inkscape:snap-grids="true" />
<style
   type="text/css"
   id="style2">
	.st0{fill:#00AED3;}
	.st1{fill:#A6C613;}
	.st2{fill:#E4006D;}
	.st3{fill:none;}
	.st4{fill:#FFFFFF;}
	.st5{font-family:'ProximaNova-Bold';}
	.st6{font-size:51px;}
</style>





<text
   xml:space="preserve"
   style="font-style:normal;font-weight:normal;font-size:40px;line-height:1.25;font-family:sans-serif;letter-spacing:0px;word-spacing:0px;fill:#000000;fill-opacity:1;stroke:none"
   x="472.23849"
   y="144.52132"
   id="text76"><tspan
     sodipodi:role="line"
     id="tspan74"
     x="472.23849"
     y="144.52132" /></text><g
   id="g24"
   transform="translate(-244.61,-145.19)"><polygon
     class="st0"
     points="326.36,185.76 285.49,185.76 244.61,185.76 244.61,226.64 244.61,267.52 244.61,308.39 285.49,308.39 326.36,308.39 326.36,267.52 285.49,267.52 285.49,226.64 326.36,226.64 "
     id="polygon4" /><polygon
     class="st1"
     points="500.04,308.39 540.91,308.39 581.79,308.39 581.79,267.52 581.79,226.64 581.79,185.76 540.91,185.76 500.04,185.76 500.04,226.64 540.91,226.64 540.91,267.52 500.04,267.52 "
     id="polygon6" /><polygon
     class="st2"
     points="392.93,308.39 392.93,267.52 392.93,226.84 392.93,226.74 392.93,186.06 433.81,186.06 474.68,186.06 474.68,145.19 433.81,145.19 392.93,145.19 352.06,145.19 352.06,185.96 352.06,186.06 352.06,226.74 352.06,226.84 352.06,267.52 352.06,267.62 352.06,308.39 352.06,349.71 474.68,349.71 474.68,308.39 474.68,267.62 474.68,267.52 474.68,226.74 433.81,226.74 433.81,267.52 433.81,308.39 "
     id="polygon8" /></g></svg>
