<?xml version="1.0" encoding="UTF-8" standalone="no"?>
<svg
   viewBox="0 0 428.23 280.39"
   version="1.1"
   id="svg93"
   sodipodi:docname="GCC_1.svg"
   inkscape:version="1.1.1 (3bf5ae0d25, 2021-09-20)"
   xmlns:inkscape="http://www.inkscape.org/namespaces/inkscape"
   xmlns:sodipodi="http://sodipodi.sourceforge.net/DTD/sodipodi-0.dtd"
   xmlns="http://www.w3.org/2000/svg"
   xmlns:svg="http://www.w3.org/2000/svg">
  <sodipodi:namedview
     id="namedview95"
     pagecolor="#505050"
     bordercolor="#eeeeee"
     borderopacity="1"
     inkscape:pageshadow="0"
     inkscape:pageopacity="0"
     inkscape:pagecheckerboard="0"
     showgrid="false"
     inkscape:zoom="2.8852669"
     inkscape:cx="277.444"
     inkscape:cy="140.195"
     inkscape:window-width="2560"
     inkscape:window-height="1017"
     inkscape:window-x="-8"
     inkscape:window-y="-8"
     inkscape:window-maximized="1"
     inkscape:current-layer="text12" />
  <defs
     id="defs55">
    <style
       id="style53">.cls-1{fill:#00aed3;}.cls-2{fill:#a6c613;}.cls-3{fill:#e4006d;}.cls-4{fill:none;}.cls-5{isolation:isolate;}</style>
  </defs>
  <g
     id="Calque_2"
     data-name="Calque 2">
    <g
       id="Calque_1-2"
       data-name="Calque 1">
      <g
         id="g24">
        <polygon
           id="polygon4"
           class="cls-1"
           points="45.52 40.57 45.52 81.45 45.52 122.33 45.52 163.2 86.41 163.2 127.28 163.2 127.28 122.33 86.41 122.33 86.41 81.45 127.28 81.45 127.28 40.57 86.41 40.57 45.52 40.57" />
        <polygon
           id="polygon6"
           class="cls-2"
           points="382.7 163.2 382.7 122.33 382.7 81.45 382.7 40.57 341.82 40.57 300.95 40.57 300.95 81.45 341.82 81.45 341.82 122.33 300.95 122.33 300.95 163.2 341.82 163.2 382.7 163.2" />
        <polygon
           id="polygon8"
           class="cls-3"
           points="152.97 163.2 152.97 204.52 275.6 204.52 275.6 163.2 275.6 122.43 275.6 122.33 275.6 81.55 234.72 81.55 234.72 122.33 234.72 163.2 193.84 163.2 193.84 122.33 193.84 81.65 193.84 81.55 193.84 40.87 234.72 40.87 275.6 40.87 275.6 0 234.72 0 193.84 0 152.97 0 152.97 40.77 152.97 40.87 152.97 81.55 152.97 81.65 152.97 122.33 152.97 122.43 152.97 163.2" />
      </g>
      <rect
         id="rect10"
         class="cls-4"
         y="245.71"
         width="428.23"
         height="34.68" />
      <g
         id="text12"
         class="cls-5">
        <g
           class="cls-5"
           id="g88"
           style="fill:#ffffff">
          <path
             d="M20.75,244.55A15.93,15.93,0,0,1,34.82,252l-6,3.26a9.63,9.63,0,0,0-8-4.29c-6.17,0-10.66,4.75-10.66,11.17s4.49,11.17,10.66,11.17a11.46,11.46,0,0,0,7.34-2.6v-4.13H19v-6.22H35.23v13a18.87,18.87,0,0,1-14.48,6.43c-9.95,0-18.11-6.94-18.11-17.65S10.8,244.55,20.75,244.55Z"
             id="path62"
             style="fill:#ffffff" />
          <path
             d="M41,245.11h7.24v34H41Z"
             id="path64"
             style="fill:#ffffff" />
          <path
             d="M67.51,266.94h-5.3v12.18H55v-34H70.88c7.09,0,11.42,4.64,11.42,11,0,6-3.77,9.23-7.44,10.1l7.65,12.95H74.19Zm2.3-15.61h-7.6v9.38h7.6c2.9,0,5.1-1.83,5.1-4.69S72.71,251.33,69.81,251.33Z"
             id="path66"
             style="fill:#ffffff" />
          <path
             d="M87.76,245.11H95v27.64h14.38v6.37H87.76Z"
             id="path68"
             style="fill:#ffffff" />
          <path
             d="M116.07,268.82a14.9,14.9,0,0,0,10.81,4.59c4,0,5.91-1.88,5.91-3.82,0-2.55-3-3.42-6.88-4.34-5.56-1.27-12.7-2.8-12.7-10.4,0-5.66,4.9-10.25,12.9-10.25,5.41,0,9.89,1.63,13.26,4.74l-4,5.31a14.5,14.5,0,0,0-9.74-3.73c-3.26,0-5,1.43-5,3.47,0,2.3,2.86,3,6.79,3.93,5.61,1.27,12.74,3,12.74,10.5,0,6.22-4.43,10.92-13.61,10.92-6.53,0-11.22-2.2-14.43-5.41Z"
             id="path70"
             style="fill:#ffffff" />
          <path
             d="M156.46,262.14c0-10.45,7.9-17.59,17.85-17.59a15.7,15.7,0,0,1,14.48,8.31l-6.22,3.06a9.33,9.33,0,0,0-8.26-4.95c-5.92,0-10.41,4.75-10.41,11.17s4.49,11.17,10.41,11.17a9.22,9.22,0,0,0,8.26-4.95l6.22,3a15.78,15.78,0,0,1-14.48,8.37C164.36,279.74,156.46,272.6,156.46,262.14Z"
             id="path72"
             style="fill:#ffffff" />
          <path
             d="M214.44,273.26H199.25l-2.15,5.86h-7.95l13.16-34h9.07l13.11,34h-7.91ZM201.18,267h11.27l-5.61-15.61Z"
             id="path74"
             style="fill:#ffffff" />
          <path
             d="M234.89,256.28v22.84h-7.24v-34h7.45l15.76,22v-22h7.24v34h-7Z"
             id="path76"
             style="fill:#ffffff" />
          <path
             d="M276.26,262.14c0-10.45,7.9-17.59,17.84-17.59a15.7,15.7,0,0,1,14.49,8.31l-6.23,3.06A9.31,9.31,0,0,0,294.1,251c-5.91,0-10.4,4.75-10.4,11.17s4.49,11.17,10.4,11.17a9.2,9.2,0,0,0,8.26-4.95l6.23,3a15.78,15.78,0,0,1-14.49,8.37C284.16,279.74,276.26,272.6,276.26,262.14Z"
             id="path78"
             style="fill:#ffffff" />
          <path
             d="M329,244.55c10.3,0,17.8,7.34,17.8,17.59s-7.5,17.6-17.8,17.6-17.75-7.35-17.75-17.6S318.79,244.55,329,244.55Zm0,6.42c-6.27,0-10.3,4.8-10.3,11.17s4,11.17,10.3,11.17,10.35-4.84,10.35-11.17S335.31,251,329,251Z"
             id="path80"
             style="fill:#ffffff" />
          <path
             d="M351.94,245.11h13.41c10.66,0,18,6.78,18,17s-7.39,17-18,17H351.94Zm13.41,27.64c6.73,0,10.66-4.84,10.66-10.61,0-6-3.67-10.66-10.66-10.66h-6.17v21.27Z"
             id="path82"
             style="fill:#ffffff" />
          <path
             d="M388.56,245.11h24.07v6.22H395.8v7.4h16.47V265H395.8v7.9h16.83v6.27H388.56Z"
             id="path84"
             style="fill:#ffffff" />
          <path
             d="M421.45,271.42a4.11,4.11,0,1,1,0,8.21,4.11,4.11,0,0,1,0-8.21Zm-3.93-26.31h7.81l-1,22.95H418.6Z"
             id="path86"
             style="fill:#ffffff" />
        </g>
      </g>
    </g>
  </g>
</svg>
