<svg id="Layer_1" data-name="Layer 1" xmlns="http://www.w3.org/2000/svg" viewBox="0 0 572.19 208.61"><defs><style>.cls-1{fill:#fff;}.cls-2{fill:#00aed3;}.cls-3{fill:#a6c613;}.cls-4{fill:#e4006d;}</style></defs><g id="Calque_2" data-name="Calque 2"><g id="Calque_2-2" data-name="Calque 2-2"><g id="text12"><path class="cls-1" d="M403.64,0c9.94,0,16.2,4.82,19.87,10.51L415,15.12a13.68,13.68,0,0,0-11.38-6c-8.71,0-15.05,6.7-15.05,15.77s6.34,15.77,15.05,15.77A16.24,16.24,0,0,0,414,36.94V31.11H401.19V22.32h22.9V40.68a26.64,26.64,0,0,1-20.45,9.08c-14,0-25.56-9.8-25.56-24.92S389.6,0,403.64,0Z"/><path class="cls-1" d="M432.22.79h10.23v48H432.22Z"/><path class="cls-1" d="M469.66,31.61h-7.49V48.82H452V.79h22.46c10,0,16.13,6.55,16.13,15.48,0,8.5-5.33,13-10.51,14.26l10.8,18.29H479.09Zm3.24-22H462.17V22.83H472.9c4.11,0,7.2-2.6,7.2-6.63s-3.1-6.62-7.2-6.62Z"/><path class="cls-1" d="M498.24.79h10.23v39h20.3v9H498.24Z"/><path class="cls-1" d="M538.2,34.28a21.1,21.1,0,0,0,15.27,6.48c5.61,0,8.35-2.67,8.35-5.4,0-3.61-4.18-4.83-9.72-6.13-7.85-1.8-17.93-4-17.93-14.69,0-8,6.91-14.47,18.22-14.47,7.63,0,14,2.31,18.72,6.7l-5.69,7.49A20.46,20.46,0,0,0,551.67,9c-4.61,0-7.06,2-7.06,4.9,0,3.24,4,4.25,9.58,5.54,7.92,1.8,18,4.18,18,14.84,0,8.78-6.26,15.4-19.23,15.4-9.21,0-15.84-3.09-20.37-7.63Z"/><path class="cls-1" d="M376.73,103.52c0-19.89,15-33.47,33.95-33.47,14.74,0,23,7.76,27.54,15.82l-11.83,5.82a17.71,17.71,0,0,0-15.71-9.41c-11.26,0-19.79,9-19.79,21.24s8.53,21.24,19.79,21.24a17.54,17.54,0,0,0,15.71-9.41l11.83,5.73c-4.65,8-12.8,15.9-27.54,15.9C391.76,137,376.73,123.4,376.73,103.52Z"/><path class="cls-1" d="M487,124.67H458.11L454,135.82H438.9l25-64.7h17.3l24.93,64.7h-15Zm-25.2-11.94h21.43L472.56,83.05Z"/><path class="cls-1" d="M525.91,92.36v43.46H512.14V71.12H526.3l30,41.91V71.12h13.78v64.7H556.76Z"/><path class="cls-1" d="M377.87,185.84c0-13.52,10.23-22.76,23.1-22.76,10,0,15.64,5.28,18.74,10.75l-8,4a12.08,12.08,0,0,0-10.69-6.4c-7.65,0-13.46,6.14-13.46,14.45S393.32,200.3,401,200.3a12,12,0,0,0,10.69-6.4l8,3.89c-3.16,5.48-8.71,10.82-18.74,10.82C388.1,208.61,377.87,199.37,377.87,185.84Z"/><path class="cls-1" d="M446.18,163.08c13.33,0,23,9.5,23,22.76s-9.7,22.77-23,22.77-23-9.5-23-22.77S432.92,163.08,446.18,163.08Zm0,8.31c-8.12,0-13.33,6.2-13.33,14.45s5.21,14.46,13.33,14.46,13.4-6.27,13.4-14.46S454.3,171.39,446.18,171.39Z"/><path class="cls-1" d="M475.82,163.8h17.35c13.8,0,23.36,8.78,23.36,22s-9.56,22-23.36,22H475.82Zm17.35,35.77c8.71,0,13.8-6.27,13.8-13.73,0-7.78-4.76-13.79-13.8-13.79h-8v27.52Z"/><path class="cls-1" d="M523.2,163.8h31.15v8H532.57v9.57h21.32v8H532.57V199.7h21.78v8.12H523.2Z"/><path class="cls-1" d="M565.77,197.86a5.31,5.31,0,1,1,0,10.62h0a5.31,5.31,0,0,1,0-10.62Zm-5.08-34.06h10.1l-1.32,29.7h-7.39Z"/></g><g id="g24"><polygon id="polygon4" class="cls-2" points="0 43.99 0 84.88 0 125.75 0 166.63 40.88 166.63 81.75 166.63 81.75 125.75 40.88 125.75 40.88 84.88 81.75 84.88 81.75 43.99 40.88 43.99 0 43.99"/><polygon id="polygon6" class="cls-3" points="337.18 166.63 337.18 125.75 337.18 84.88 337.18 43.99 296.3 43.99 255.43 43.99 255.43 84.88 296.3 84.88 296.3 125.75 255.43 125.75 255.43 166.63 296.3 166.63 337.18 166.63"/><polygon id="polygon8" class="cls-4" points="107.45 166.63 107.45 207.94 230.07 207.94 230.07 166.63 230.07 125.86 230.07 125.75 230.07 84.97 189.2 84.97 189.2 125.75 189.2 166.63 148.32 166.63 148.32 125.75 148.32 85.08 148.32 84.97 148.32 44.3 189.2 44.3 230.07 44.3 230.07 3.42 189.2 3.42 148.32 3.42 107.45 3.42 107.45 44.2 107.45 44.3 107.45 84.97 107.45 85.08 107.45 125.75 107.45 125.86 107.45 166.63"/></g></g></g></svg>